<svg width="221" height="74" viewBox="0 0 221 74" fill="none" xmlns="http://www.w3.org/2000/svg">
<path d="M207.934 20.5996V35.4878L186.382 35.4917V20.5996H179.839V42.72H180.602C188.382 42.7162 196.161 42.7085 203.94 42.6969C205.452 42.6949 206.964 42.6904 208.476 42.6859C210.526 42.6798 212.576 42.6737 214.627 42.6739V45.2385H220.5V35.4272H214.689C214.605 35.2976 214.605 35.0651 214.605 34.6479V21.48C214.605 21.2676 214.592 21.0533 214.579 20.8504C214.574 20.7644 214.569 20.6805 214.565 20.5996H207.934Z" fill="#00578A"/>
<path d="M132.183 29.3056V42.6516H125.579V20.6069C127.314 20.6069 129.025 20.6069 130.734 20.6165C130.972 20.6531 131.202 20.7331 131.411 20.8528C137.305 23.3592 143.196 25.8726 149.082 28.3931C149.317 28.5044 149.575 28.56 149.835 28.5557C150.095 28.5514 150.351 28.4872 150.582 28.3682C156.284 25.8438 161.994 23.3368 167.711 20.847C168.063 20.6978 168.44 20.6176 168.822 20.6107C170.366 20.5857 171.909 20.6107 173.511 20.6107V42.6804H166.939V29.3787C166.581 29.5227 166.338 29.6111 166.105 29.7149C160.954 31.9946 155.807 34.2794 150.663 36.5693C150.434 36.6897 150.18 36.7552 149.922 36.7605C149.663 36.7658 149.407 36.711 149.174 36.6001C143.812 34.2666 138.441 31.9497 133.063 29.6495C132.803 29.5285 132.534 29.4401 132.183 29.3056Z" fill="#00578A"/>
<path d="M84.6494 20.5996H119.504V21.6744C119.504 23.3924 119.468 25.1104 119.519 26.8285C119.542 27.552 119.288 27.7047 118.609 27.7028C109.84 27.6824 101.07 27.6779 92.3004 27.6894H91.2486V42.4111H84.6494V20.5996Z" fill="#00578A"/>
<path d="M84.5146 53.5857V49.1426H87.746V49.7878H85.3372V53.5857H84.5146Z" fill="#151515"/>
<path d="M90.5741 53.5849C90.1763 53.5946 89.783 53.499 89.4351 53.308C89.1132 53.1219 88.8532 52.8473 88.6868 52.5176C88.5009 52.139 88.4094 51.7221 88.4199 51.3015C88.4084 50.8778 88.4999 50.4574 88.6868 50.0758C88.8532 49.7462 89.1132 49.4715 89.4351 49.2854C89.7826 49.0936 90.1762 48.9979 90.5741 49.0086C90.9733 48.9987 91.3679 49.0942 91.717 49.2854C92.0397 49.47 92.2996 49.7451 92.4634 50.0758C92.6473 50.4549 92.7374 50.8718 92.7264 51.292C92.7378 51.7153 92.6477 52.1352 92.4634 52.5176C92.2996 52.8484 92.0397 53.1235 91.717 53.308C91.3675 53.4983 90.9732 53.5938 90.5741 53.5849ZM90.5741 52.951C90.757 52.9575 90.9389 52.9232 91.1063 52.8504C91.2738 52.7777 91.4224 52.6685 91.541 52.531C91.7847 52.2484 91.9065 51.8354 91.9065 51.292C91.9065 50.7485 91.7847 50.3387 91.541 50.0625C91.4211 49.927 91.2721 49.8197 91.1048 49.7483C90.9375 49.677 90.7562 49.6434 90.5741 49.6501C90.392 49.6431 90.2106 49.6766 90.0433 49.748C89.876 49.8193 89.727 49.9268 89.6073 50.0625C89.3675 50.3374 89.2476 50.7472 89.2476 51.292C89.2476 51.8367 89.3675 52.2497 89.6073 52.531C89.7257 52.6687 89.8743 52.778 90.0418 52.8508C90.2092 52.9236 90.3913 52.9578 90.5741 52.951Z" fill="#151515"/>
<path d="M94.0124 55.4705V50.145C94.0124 49.9732 94.0124 49.7977 93.9927 49.6201C93.973 49.4426 93.9631 49.2651 93.9395 49.0876H94.7281L94.8267 50.118H94.7281C94.811 49.7859 95.0178 49.4961 95.3078 49.3056C95.6217 49.1021 95.9921 48.9984 96.3685 49.0085C96.7417 49.0004 97.1095 49.096 97.4293 49.2844C97.7386 49.4751 97.9835 49.751 98.1332 50.0774C98.3077 50.4675 98.3925 50.8905 98.3816 51.3162C98.3923 51.7432 98.3075 52.1673 98.1332 52.5588C97.9848 52.8876 97.7398 53.1656 97.4293 53.3576C97.1095 53.546 96.7417 53.6417 96.3685 53.6336C95.9966 53.6422 95.6311 53.5384 95.3216 53.3364C95.0341 53.1443 94.8248 52.8596 94.7301 52.5318H94.8287V55.4705H94.0124ZM96.1812 52.9929C96.3695 53.0005 96.557 52.9662 96.7298 52.8927C96.9026 52.8191 97.0561 52.7083 97.1789 52.5685C97.426 52.2829 97.5496 51.8655 97.5496 51.3162C97.5496 50.7669 97.426 50.3527 97.1789 50.0736C97.0548 49.9358 96.9009 49.8268 96.7282 49.7547C96.5556 49.6826 96.3687 49.6491 96.1812 49.6568C95.9955 49.6498 95.8106 49.6836 95.64 49.7557C95.4694 49.8278 95.3175 49.9365 95.1954 50.0736C94.9509 50.3514 94.8287 50.7656 94.8287 51.3162C94.8287 51.8668 94.9509 52.2842 95.1954 52.5685C95.317 52.7087 95.4698 52.8198 95.642 52.8934C95.8142 52.967 96.0014 53.001 96.1891 52.9929H96.1812Z" fill="#151515"/>
<path d="M101.478 53.5849C101.08 53.5944 100.686 53.4988 100.339 53.3081C100.018 53.1211 99.7586 52.8466 99.5921 52.5176C99.4062 52.1391 99.3147 51.7221 99.3252 51.3015C99.3136 50.8778 99.4052 50.4574 99.5921 50.0758C99.7586 49.7468 100.018 49.4724 100.339 49.2854C100.686 49.0938 101.08 48.9982 101.478 49.0086C101.877 48.9984 102.271 49.094 102.62 49.2854C102.944 49.4699 103.204 49.745 103.369 50.0758C103.552 50.4551 103.642 50.8718 103.632 51.292C103.642 51.7152 103.552 52.1349 103.369 52.5176C103.204 52.8485 102.944 53.1236 102.62 53.3081C102.271 53.4986 101.877 53.5941 101.478 53.5849ZM101.478 52.951C101.66 52.9576 101.842 52.9232 102.01 52.8504C102.177 52.7777 102.326 52.6685 102.444 52.531C102.687 52.2485 102.808 51.8354 102.808 51.292C102.808 50.7485 102.687 50.3386 102.444 50.0625C102.324 49.9271 102.175 49.8199 102.008 49.7485C101.841 49.6772 101.66 49.6435 101.478 49.65C101.295 49.643 101.114 49.6764 100.947 49.7477C100.779 49.8191 100.63 49.9267 100.511 50.0625C100.27 50.3374 100.149 50.7472 100.149 51.292C100.149 51.8367 100.27 52.2497 100.511 52.531C100.629 52.6688 100.778 52.7783 100.945 52.8511C101.113 52.9238 101.295 52.958 101.478 52.951Z" fill="#151515"/>
<path d="M104.576 54.6628V52.9112H105.064C105.275 52.5915 105.424 52.2369 105.505 51.8648C105.603 51.3939 105.648 50.9141 105.642 50.4335V49.1426H108.848V52.9112H109.558V54.6628H108.865V53.5254H105.269V54.6628H104.576ZM105.829 52.9188H108.093V49.7568H106.356V50.5776C106.357 51.0094 106.312 51.4402 106.223 51.8629C106.146 52.2338 106.01 52.5902 105.819 52.9188H105.829Z" fill="#151515"/>
<path d="M112.593 53.5848C112.181 53.5949 111.775 53.4994 111.414 53.308C111.081 53.1214 110.812 52.8429 110.641 52.508C110.448 52.1212 110.354 51.6948 110.366 51.2651C110.354 50.8434 110.45 50.4254 110.645 50.0489C110.824 49.7221 111.097 49.4532 111.431 49.2757C111.79 49.0914 112.191 48.9994 112.597 49.0084C112.889 49.0077 113.18 49.0568 113.455 49.1535C113.712 49.2377 113.945 49.3804 114.133 49.5697L113.854 50.1329C113.689 49.9741 113.491 49.85 113.274 49.7683C113.076 49.692 112.865 49.6518 112.652 49.6499C112.456 49.64 112.26 49.6722 112.079 49.7442C111.898 49.8161 111.735 49.926 111.602 50.0661C111.349 50.3448 111.223 50.7477 111.223 51.2746C111.193 51.7155 111.328 52.1521 111.602 52.5042C111.733 52.6478 111.895 52.7611 112.076 52.8355C112.258 52.9099 112.455 52.9434 112.652 52.9337C112.862 52.9314 113.07 52.8926 113.267 52.8192C113.486 52.7397 113.687 52.6175 113.856 52.4603L114.135 53.014C113.943 53.2079 113.706 53.3539 113.443 53.4397C113.17 53.535 112.883 53.5841 112.593 53.5848Z" fill="#151515"/>
<path d="M115.213 53.5857V49.1426H116.013V50.9801H116.83L118.277 49.1426H119.163L117.482 51.3008L117.269 51.055C117.425 51.0676 117.577 51.1106 117.716 51.1817C117.852 51.26 117.974 51.3599 118.077 51.4774C118.218 51.6406 118.345 51.8153 118.456 51.9997L119.387 53.5799H118.51L117.696 52.2109C117.624 52.0758 117.534 51.9511 117.428 51.8403C117.345 51.7537 117.243 51.6879 117.129 51.6483C116.994 51.6104 116.853 51.5929 116.713 51.5965H116.013V53.5742L115.213 53.5857Z" fill="#151515"/>
<path d="M122.214 53.5849C121.816 53.5946 121.422 53.499 121.074 53.308C120.752 53.1219 120.492 52.8473 120.326 52.5176C120.14 52.1389 120.05 51.7219 120.061 51.3015C120.048 50.8779 120.139 50.4576 120.326 50.0758C120.492 49.7462 120.752 49.4715 121.074 49.2854C121.422 49.0936 121.816 48.9979 122.214 49.0086C122.613 48.9985 123.008 49.094 123.357 49.2854C123.68 49.47 123.94 49.7451 124.104 50.0758C124.288 50.4549 124.378 50.8718 124.367 51.292C124.378 51.7153 124.288 52.1352 124.104 52.5176C123.94 52.8484 123.68 53.1235 123.357 53.308C123.008 53.4986 122.613 53.5941 122.214 53.5849ZM122.214 52.951C122.397 52.9575 122.579 52.9232 122.746 52.8504C122.914 52.7777 123.062 52.6685 123.181 52.531C123.425 52.2484 123.547 51.8354 123.547 51.292C123.547 50.7485 123.425 50.3387 123.181 50.0625C123.061 49.927 122.912 49.8197 122.745 49.7483C122.577 49.677 122.396 49.6434 122.214 49.6501C122.032 49.6431 121.85 49.6766 121.683 49.748C121.515 49.8193 121.366 49.9268 121.247 50.0625C121.007 50.3374 120.887 50.7472 120.887 51.292C120.887 51.8367 121.007 52.2497 121.247 52.531C121.365 52.6687 121.514 52.778 121.681 52.8508C121.849 52.9236 122.031 52.9578 122.214 52.951Z" fill="#151515"/>
<path d="M125.579 53.5763V49.1228H126.335V52.8258H126.087L128.928 49.1324H129.618V53.586H128.863V49.8849H129.118L126.269 53.586L125.579 53.5763ZM127.599 48.7167C127.353 48.7195 127.108 48.6744 126.881 48.5839C126.666 48.4985 126.475 48.3669 126.321 48.199C126.157 48.0162 126.037 47.7998 125.971 47.5658L126.444 47.3964C126.525 47.6433 126.68 47.861 126.889 48.0219C127.098 48.1578 127.347 48.2252 127.599 48.2144C127.852 48.2221 128.103 48.155 128.317 48.0219C128.535 47.8585 128.706 47.6412 128.809 47.3926L129.254 47.5523C129.139 47.9063 128.907 48.2138 128.596 48.428C128.3 48.6186 127.953 48.7192 127.599 48.7167Z" fill="#151515"/>
<path d="M133.523 53.5857V49.1426H134.205L135.878 52.0496L137.558 49.1426H138.236V53.5857H137.513V50.045H137.709L136.08 52.8714H135.675L134.048 50.0354H134.245V53.5857H133.523Z" fill="#151515"/>
<path d="M141.741 53.5855C141.033 53.5855 140.473 53.3831 140.062 52.9783C139.652 52.5755 139.448 52.0237 139.448 51.3096C139.437 50.8885 139.53 50.471 139.718 50.0934C139.886 49.7625 140.146 49.4858 140.467 49.2953C140.804 49.0995 141.19 49.0004 141.581 49.0089C141.944 48.9968 142.304 49.0868 142.617 49.2685C142.903 49.4416 143.129 49.6975 143.264 50.0017C143.42 50.356 143.496 50.7399 143.486 51.1263V51.3898H140.076V50.9144H142.937L142.787 51.0289C142.81 50.6501 142.702 50.2748 142.481 49.9655C142.371 49.8366 142.233 49.7349 142.077 49.6686C141.921 49.6023 141.751 49.5732 141.581 49.5836C141.391 49.5735 141.201 49.6084 141.027 49.6854C140.853 49.7624 140.7 49.8793 140.58 50.0265C140.33 50.3781 140.206 50.8033 140.23 51.2332V51.3134C140.23 51.8518 140.365 52.2586 140.634 52.5335C140.782 52.6755 140.958 52.7855 141.151 52.8565C141.344 52.9275 141.549 52.9579 141.755 52.9459C142.007 52.9485 142.258 52.9104 142.498 52.8332C142.742 52.7487 142.967 52.6191 143.162 52.4514L143.428 53.0051C143.211 53.1956 142.955 53.3387 142.679 53.4251C142.378 53.5302 142.061 53.5844 141.741 53.5855Z" fill="#151515"/>
<path d="M144.295 54.6628V52.9112H144.795C145.011 52.5915 145.164 52.2369 145.247 51.8648C145.347 51.3939 145.394 50.9141 145.387 50.4335V49.1426H148.683V52.9112H149.411V54.6628H148.683V53.5254H145.015V54.6628H144.295ZM145.579 52.9188H147.892V49.7568H146.111V50.5776C146.112 51.0094 146.066 51.4402 145.975 51.8629C145.902 52.2328 145.769 52.5892 145.579 52.9188Z" fill="#151515"/>
<path d="M150.354 53.5761V49.1426H151.109V52.8289H150.864L153.702 49.1522H154.393V53.5857H153.637V49.9013H153.892L151.046 53.5857L150.354 53.5761Z" fill="#151515"/>
<path d="M159.761 54.7974V53.6331H155.873V49.1426H156.678V53.0005H158.931V49.1426H159.735V53.0005H160.451V54.7936L159.761 54.7974Z" fill="#151515"/>
<path d="M161.528 53.5761V49.1426H162.284V52.8289H162.038L164.876 49.1522H165.567V53.5857H164.812V49.9013H165.067L162.22 53.5857L161.528 53.5761Z" fill="#151515"/>
<path d="M167.049 53.5857V49.1426H167.868V50.9801H170.274V49.1426H171.088V53.5857H170.274V51.6156H167.868V53.5857H167.049Z" fill="#151515"/>
<path d="M174.532 53.5848C174.12 53.5949 173.712 53.4994 173.351 53.308C173.017 53.1219 172.747 52.8433 172.577 52.508C172.383 52.1214 172.288 51.695 172.3 51.2651C172.288 50.8433 172.384 50.4252 172.581 50.0489C172.758 49.724 173.028 49.4555 173.359 49.2757C173.719 49.0914 174.121 48.9994 174.528 49.0084C174.821 49.0077 175.112 49.0568 175.388 49.1535C175.645 49.2377 175.878 49.3804 176.067 49.5697L175.785 50.1329C175.62 49.9745 175.423 49.8505 175.207 49.7683C175.007 49.6918 174.795 49.6516 174.581 49.6499C174.385 49.6403 174.19 49.6727 174.009 49.7446C173.827 49.8165 173.665 49.9263 173.532 50.0661C173.277 50.3448 173.151 50.7477 173.152 51.2746C173.122 51.7155 173.257 52.1521 173.532 52.5042C173.662 52.6477 173.824 52.7609 174.006 52.8352C174.187 52.9096 174.384 52.9433 174.581 52.9337C174.792 52.9319 175 52.8931 175.197 52.8192C175.417 52.7401 175.618 52.6179 175.787 52.4603L176.069 53.014C175.876 53.2079 175.639 53.3539 175.376 53.4397C175.105 53.5338 174.819 53.5829 174.532 53.5848Z" fill="#151515"/>
<path d="M177.146 53.5857V49.1426H177.961V50.9801H178.775L180.222 49.1426H181.107L179.418 51.3008L179.202 51.055C179.358 51.0671 179.51 51.1102 179.649 51.1817C179.786 51.2594 179.909 51.3594 180.013 51.4774C180.152 51.6416 180.279 51.8162 180.391 51.9997L181.32 53.5799H180.446L179.632 52.2109C179.56 52.0758 179.47 51.9511 179.364 51.8403C179.281 51.7537 179.178 51.6879 179.064 51.6483C178.929 51.6105 178.789 51.593 178.649 51.5965H177.961V53.5742L177.146 53.5857Z" fill="#151515"/>
<path d="M182.128 53.5761V49.1426H182.883V52.8289H182.638L185.475 49.1522H186.167V53.5857H185.422V49.9013H185.677L182.83 53.5857L182.128 53.5761Z" fill="#151515"/>
<path d="M187.648 53.5763V49.1283H188.403V52.8267H188.162L190.996 49.138H191.688V53.586H190.927V49.8895H191.182L188.338 53.586L187.648 53.5763ZM189.665 48.7227C189.421 48.7273 189.179 48.6849 188.952 48.5978C188.738 48.5121 188.547 48.3807 188.393 48.2134C188.231 48.0299 188.111 47.814 188.043 47.581L188.516 47.4118C188.598 47.6517 188.749 47.8633 188.952 48.0211C189.16 48.1574 189.408 48.2248 189.659 48.2134C189.913 48.2213 190.164 48.1543 190.378 48.0211C190.597 47.8583 190.766 47.6412 190.868 47.3926L191.314 47.5521C191.198 47.9059 190.967 48.213 190.655 48.4268C190.362 48.6188 190.018 48.7218 189.665 48.7227Z" fill="#151515"/>
<path d="M199.481 54.7974V53.6331H195.592V49.1426H196.397V53.0005H198.649V49.1426H199.454V53.0005H200.17V54.7936L199.481 54.7974Z" fill="#151515"/>
<path d="M203.273 53.5855C202.564 53.5855 202.005 53.3834 201.595 52.9791C201.183 52.5767 200.979 52.0256 200.979 51.3124C200.966 50.8903 201.058 50.4716 201.244 50.092C201.414 49.762 201.673 49.4857 201.994 49.2949C202.332 49.0991 202.719 49.0001 203.111 49.0089C203.474 48.9968 203.833 49.0867 204.147 49.2682C204.433 49.4422 204.658 49.6975 204.794 50.0005C204.949 50.3546 205.025 50.7378 205.016 51.1236V51.3868H201.609V50.912H204.469L204.319 51.0264C204.342 50.6481 204.234 50.2732 204.012 49.9643C203.903 49.8356 203.765 49.7341 203.609 49.6678C203.454 49.6016 203.284 49.5725 203.115 49.5829C202.924 49.5727 202.734 49.6074 202.56 49.6844C202.386 49.7613 202.233 49.8781 202.113 50.0253C201.86 50.3752 201.735 50.8005 201.759 51.2304V51.3105C201.759 51.8483 201.892 52.264 202.161 52.5291C202.309 52.6706 202.485 52.7803 202.678 52.8512C202.871 52.922 203.077 52.9526 203.282 52.941C203.535 52.9437 203.786 52.9057 204.026 52.8285C204.27 52.744 204.495 52.6146 204.69 52.4471L204.956 53.0001C204.739 53.1899 204.485 53.3328 204.209 53.4196C203.908 53.526 203.592 53.5821 203.273 53.5855Z" fill="#151515"/>
<path d="M206.229 53.5857V49.1426H207.038V50.9801H209.451V49.1426H210.268V53.5857H209.451V51.6156H207.038V53.5857H206.229Z" fill="#151515"/>
<path d="M212.694 53.5857V49.7878H211.075V49.1426H215.114V49.7878H213.498V53.5857H212.694Z" fill="#151515"/>
<path d="M215.995 55.4705V50.145C215.995 49.9732 215.995 49.7977 215.977 49.6201C215.959 49.4426 215.945 49.2651 215.922 49.0876H216.718L216.817 50.118H216.718C216.801 49.7859 217.007 49.4961 217.296 49.3056C217.61 49.1021 217.98 48.9983 218.356 49.0085C218.728 49.0004 219.095 49.096 219.414 49.2844C219.722 49.4752 219.966 49.7511 220.114 50.0774C220.29 50.4671 220.375 50.8902 220.364 51.3162C220.375 51.7434 220.29 52.1678 220.114 52.5588C219.967 52.8874 219.723 53.1654 219.414 53.3576C219.095 53.546 218.728 53.6417 218.356 53.6336C217.985 53.6424 217.619 53.5387 217.31 53.3364C217.023 53.1443 216.815 52.8596 216.72 52.5318H216.819V55.4705H215.995ZM218.158 52.9929C218.345 53.0005 218.532 52.9662 218.705 52.8927C218.877 52.8191 219.03 52.7083 219.153 52.5685C219.4 52.2829 219.522 51.8661 219.522 51.3162C219.522 50.7663 219.4 50.3514 219.153 50.0736C219.029 49.9358 218.875 49.8268 218.703 49.7547C218.531 49.6826 218.345 49.6492 218.158 49.6568C217.972 49.6498 217.788 49.6836 217.618 49.7557C217.448 49.8278 217.296 49.9365 217.174 50.0736C216.925 50.3476 216.801 50.7618 216.801 51.3162C216.801 51.8706 216.923 52.288 217.167 52.5685C217.289 52.7097 217.442 52.8215 217.616 52.8952C217.789 52.9688 217.977 53.0022 218.166 52.9929H218.158Z" fill="#151515"/>
<path d="M11.6779 44.9406C11.5957 42.8936 13.1727 41.7959 13.8893 44.805C14.6059 47.814 15.5793 54.5282 15.5793 54.5282C15.5793 54.5282 11.796 53.8655 11.8371 53.5968C11.8782 53.3281 11.6779 44.9406 11.6779 44.9406Z" fill="#00578A"/>
<path d="M8.04378 40.0185C7.94315 37.4912 9.89902 36.1473 10.7867 39.8502C11.6743 43.5531 12.887 51.8362 12.887 51.8362C12.887 51.8362 8.19085 51.0201 8.24245 50.6886C8.29406 50.3571 8.04378 40.0185 8.04378 40.0185Z" fill="#007D99"/>
<path d="M4.38717 36.3918C4.2761 33.5808 6.40663 32.0807 7.37092 36.2053C8.33521 40.3298 9.65543 49.5475 9.65543 49.5475C9.65543 49.5475 3.54152 43.1588 3.59706 42.7959C3.65259 42.433 4.38717 36.3918 4.38717 36.3918Z" fill="#01A6A0"/>
<path d="M29.0765 73.1099C28.2136 59.5535 14.1377 59.4677 8.09469 54.6597C2.05169 49.8517 0.724122 37.5789 1.09686 34.8253C1.4696 32.0716 2.93248 30.7115 4.14772 34.5574C5.36295 38.4033 6.49904 45.3295 11.0843 48.5297C15.6695 51.73 24.2607 52.1511 19.3714 48.6165C12.9888 44.0024 14.0941 39.5426 15.6101 38.61C16.7695 37.8968 19.4837 42.8897 23.2647 44.9288C27.0457 46.9679 32.7024 48.5719 35.3193 54.9239C38.2941 62.1448 29.0765 73.1099 29.0765 73.1099Z" fill="#00C6BF"/>
<path d="M57.7616 6.02584C53.5957 3.18033 46.6738 1.55216 39.8819 5.92378C37.1284 8.54727 34.8134 12.1022 33.2531 16.7188C33.2531 16.7188 25.268 7.92704 12.4924 12.7223C-0.283225 17.5176 0.509667 31.37 0.509667 31.37C0.509667 31.37 4.18607 20.0901 16.4798 19.3755C28.7736 18.661 35.1748 30.5137 35.1748 30.5137C35.1748 30.5137 36.7357 18.5052 47.8848 15.6469C58.167 13.0209 64.3547 21.1032 61.7542 31.1633C66.1852 20.9246 64.3827 10.5455 57.7616 6.02584Z" fill="#00578A"/>
<path d="M52.7402 48.9835C52.7402 48.9835 42.2148 36.4876 23.6582 43.1603C23.6582 43.1603 33.1414 42.9591 37.4605 53.7892C40.1482 60.528 33.6253 70.4159 33.6253 70.4159C33.6253 70.4159 45.0943 60.9892 52.7402 48.9835Z" fill="#00578A"/>
<path d="M71.8442 8.42509C65.5524 -0.83138 49.8254 -3.57641 39.8519 5.89651C46.6489 1.53438 53.576 3.15902 57.745 5.99835C64.3787 10.5082 66.1647 20.8545 61.7508 31.0863C61.4792 32.1239 61.1312 33.1402 60.7098 34.1268C56.4591 44.1294 51.3869 50.4956 51.3869 50.4956C43.9648 61.7001 33.3516 70.5508 33.3516 70.5508C74.4601 53.3264 82.6291 24.305 71.8442 8.42509Z" fill="#00C6BF"/>
<path style="mix-blend-mode:multiply" opacity="0.29" d="M57.1412 16.5767C62.647 19.9561 62.7475 26.7855 61.634 31.1007C66.0422 20.8715 64.2449 10.5278 57.6428 6.01906C53.4889 3.18045 46.5868 1.55622 39.8145 5.91725C45.2852 2.7324 58.0208 0.145825 57.1412 16.5767Z" fill="#00578A"/>
<path style="mix-blend-mode:multiply" opacity="0.29" d="M48.9875 45.6426C46.7541 53.6628 37.6416 66.439 33.6211 70.4161C33.6211 70.4161 43.3591 62.485 52.7398 48.7616C51.5784 47.6922 50.3276 46.5337 48.9875 45.6426Z" fill="#00578A"/>
</svg>
